<svg xmlns="http://www.w3.org/2000/svg" viewBox="0 0 120 120" width="120" height="120" fill="none" role="img" aria-label="Church icon">
  <defs>
    <linearGradient id="cGold" x1="0" y1="0" x2="0" y2="1">
      <stop offset="0%" stop-color="#D8BC85"/>
      <stop offset="100%" stop-color="#C8A96A"/>
    </linearGradient>
  </defs>
  <g stroke="#183A73" stroke-width="2.4" stroke-linejoin="round" stroke-linecap="round" fill="none">
    <!-- steeple -->
    <path d="M60 8 L60 22" stroke="url(#cGold)" stroke-width="3"/>
    <path d="M54 14 L66 14" stroke="url(#cGold)" stroke-width="3"/>
    <path d="M60 22 L74 46 L46 46 Z" fill="#EEF4FF"/>
    <!-- main body -->
    <path d="M40 52 L40 104 L80 104 L80 52 L60 34 Z" fill="#F6FAFF"/>
    <!-- door -->
    <path d="M54 104 L54 82 A6 6 0 0 1 66 82 L66 104" fill="#EEF4FF"/>
    <!-- windows -->
    <path d="M47 66 L47 74 M53 66 L53 74" stroke="#3A5F9B" stroke-width="1.8"/>
    <path d="M73 66 L73 74 M67 66 L67 74" stroke="#3A5F9B" stroke-width="1.8"/>
    <!-- steps -->
    <path d="M34 104 L86 104" stroke="#C8A96A" stroke-width="3"/>
    <path d="M30 110 L90 110" stroke="#C8A96A" stroke-width="3"/>
  </g>
</svg>
