<svg xmlns="http://www.w3.org/2000/svg" viewBox="0 0 1200 630" width="1200" height="630">
  <defs>
    <linearGradient id="bg" x1="0" y1="0" x2="0" y2="1">
      <stop offset="0%" stop-color="#FFFFFF"/>
      <stop offset="100%" stop-color="#EEF4FF"/>
    </linearGradient>
    <radialGradient id="ob" cx="50%" cy="40%" r="65%">
      <stop offset="0%" stop-color="#EAF1FC"/><stop offset="55%" stop-color="#8FB0DE"/><stop offset="100%" stop-color="#3A5F9B"/>
    </radialGradient>
    <radialGradient id="ogd" cx="50%" cy="45%" r="60%">
      <stop offset="0%" stop-color="#F2E0B4"/><stop offset="100%" stop-color="#C8A96A"/>
    </radialGradient>
  </defs>
  <rect width="1200" height="630" fill="url(#bg)"/>
  <rect x="30" y="30" width="1140" height="570" rx="18" fill="none" stroke="#C8A96A" stroke-width="2"/>
  <g transform="translate(150 150) scale(0.7)" opacity="0.55">
    <g fill="url(#ob)"><ellipse cx="0" cy="-40" rx="24" ry="42"/><ellipse cx="0" cy="-40" rx="24" ry="42" transform="rotate(72)"/><ellipse cx="0" cy="-40" rx="24" ry="42" transform="rotate(144)"/><ellipse cx="0" cy="-40" rx="24" ry="42" transform="rotate(216)"/><ellipse cx="0" cy="-40" rx="24" ry="42" transform="rotate(288)"/></g>
    <circle r="15" fill="url(#ogd)"/>
  </g>
  <g transform="translate(1050 480) scale(0.7)" opacity="0.55">
    <g fill="url(#ob)"><ellipse cx="0" cy="-40" rx="24" ry="42"/><ellipse cx="0" cy="-40" rx="24" ry="42" transform="rotate(72)"/><ellipse cx="0" cy="-40" rx="24" ry="42" transform="rotate(144)"/><ellipse cx="0" cy="-40" rx="24" ry="42" transform="rotate(216)"/><ellipse cx="0" cy="-40" rx="24" ry="42" transform="rotate(288)"/></g>
    <circle r="15" fill="url(#ogd)"/>
  </g>
  <text x="600" y="200" text-anchor="middle" font-family="Georgia, serif" font-size="30" letter-spacing="6" fill="#3A5F9B">THE WEDDING OF</text>
  <text x="600" y="320" text-anchor="middle" font-family="'Brush Script MT', cursive" font-size="90" fill="#183A73">Meby Abraham</text>
  <text x="600" y="380" text-anchor="middle" font-family="Georgia, serif" font-size="44" fill="#C8A96A">&#9825;</text>
  <text x="600" y="450" text-anchor="middle" font-family="'Brush Script MT', cursive" font-size="90" fill="#183A73">Christy Thomas</text>
  <text x="600" y="540" text-anchor="middle" font-family="Georgia, serif" font-size="30" letter-spacing="4" fill="#333333">Monday, 16 November 2026 &#183; Kumarakom, Kerala</text>
</svg>
