<svg xmlns="http://www.w3.org/2000/svg" viewBox="0 0 300 120" width="300" height="120" fill="none" role="img" aria-label="Delicate floral sprig">
  <defs>
    <radialGradient id="sBlue" cx="50%" cy="40%" r="65%">
      <stop offset="0%" stop-color="#EAF1FC"/>
      <stop offset="55%" stop-color="#8FB0DE"/>
      <stop offset="100%" stop-color="#3A5F9B"/>
    </radialGradient>
    <radialGradient id="sGold" cx="50%" cy="45%" r="60%">
      <stop offset="0%" stop-color="#F2E0B4"/>
      <stop offset="100%" stop-color="#C8A96A"/>
    </radialGradient>
    <linearGradient id="sLeaf" x1="0" y1="0" x2="1" y2="1">
      <stop offset="0%" stop-color="#A9C7B2"/>
      <stop offset="100%" stop-color="#4E7C86"/>
    </linearGradient>
    <filter id="sSoft" x="-20%" y="-20%" width="140%" height="140%"><feGaussianBlur stdDeviation="1.2"/></filter>
  </defs>
  <g filter="url(#sSoft)">
    <path d="M40 60 C90 40 150 40 210 55" stroke="#5E8A8E" stroke-width="2.5" fill="none" opacity="0.55"/>
    <ellipse cx="80" cy="46" rx="26" ry="11" fill="url(#sLeaf)" transform="rotate(-18 80 46)"/>
    <ellipse cx="130" cy="44" rx="24" ry="10" fill="url(#sLeaf)" transform="rotate(-8 130 44)"/>
    <ellipse cx="180" cy="50" rx="22" ry="9" fill="url(#sLeaf)" transform="rotate(6 180 50)"/>
    <g transform="translate(210 55) scale(0.55)">
      <g fill="url(#sBlue)">
        <ellipse cx="0" cy="-40" rx="22" ry="40"/>
        <ellipse cx="0" cy="-40" rx="22" ry="40" transform="rotate(72)"/>
        <ellipse cx="0" cy="-40" rx="22" ry="40" transform="rotate(144)"/>
        <ellipse cx="0" cy="-40" rx="22" ry="40" transform="rotate(216)"/>
        <ellipse cx="0" cy="-40" rx="22" ry="40" transform="rotate(288)"/>
      </g>
      <circle r="14" fill="url(#sGold)"/>
    </g>
    <circle cx="248" cy="40" r="9" fill="url(#sBlue)"/>
    <circle cx="60" cy="66" r="6" fill="url(#sBlue)" opacity="0.85"/>
  </g>
</svg>
